<svg xmlns="http://www.w3.org/2000/svg" width="1800" height="1125" viewBox="0 0 1800 1125" role="img">
<title>LLC / SPM：两个别名如何访问同一组 ways</title>
<desc>默认阵列：8 ways × 256 lines × 8 blocks × 8 B = 128 KiB；图中 way 分配仅示意。；源码：cheshire_pkg.sv::get_llc_size；cheshire_soc.sv::gen_llc；axi_llc 依赖</desc>
<rect x="0" y="0" width="1800" height="1125" rx="0" fill="#FFFFFF" stroke="#FFFFFF" stroke-width="1.5"/>
<rect x="40" y="40" width="8" height="62" rx="0" fill="#216BB1" stroke="#216BB1" stroke-width="1.5"/>
<line x1="40" y1="148" x2="1760" y2="148" stroke="#B9CAD6" stroke-width="1.5" fill="none"/>
<line x1="40" y1="1045" x2="1760" y2="1045" stroke="#B9CAD6" stroke-width="1.5" fill="none"/>
<rect x="785" y="200" width="930" height="530" rx="12" fill="#EDF4FC" stroke="#B9CAD6" stroke-width="1.5"/>
<polyline points="570,300 690,300 690,430 785,430" fill="none" stroke="#B76315" stroke-width="3"/>
<polygon points="785.00,430.00 773.00,425.00 773.00,435.00" fill="#B76315" stroke="#B76315" stroke-width="1"/>
<polyline points="570,535 720,535 720,495 785,495" fill="none" stroke="#087E83" stroke-width="3"/>
<polygon points="785.00,495.00 773.00,490.00 773.00,500.00" fill="#087E83" stroke="#087E83" stroke-width="1"/>
<polyline points="745,895.0 980,895.0" fill="none" stroke="#216BB1" stroke-width="3"/>
<polygon points="980.00,895.00 968.00,890.00 968.00,900.00" fill="#216BB1" stroke="#216BB1" stroke-width="1"/>
<polyline points="1240,730 1240,790 1320,790 1320,820" fill="none" stroke="#216BB1" stroke-width="3"/>
<polygon points="1320.00,820.00 1325.00,808.00 1315.00,808.00" fill="#216BB1" stroke="#216BB1" stroke-width="1"/>
<text x="68" y="77" fill="#19364B" font-family="WenQuanYi Zen Hei" font-size="36" font-weight="bold" text-anchor="start">LLC / SPM：两个别名如何访问同一组 ways</text>
<text x="68" y="120" fill="#536B7D" font-family="WenQuanYi Zen Hei" font-size="23" font-weight="normal" text-anchor="start">默认阵列：8 ways × 256 lines × 8 blocks × 8 B = 128 KiB；图中 way 分配仅示意。</text>
<text x="48" y="1077" fill="#087E83" font-family="WenQuanYi Zen Hei" font-size="21" font-weight="normal" text-anchor="start">当前源码结构 / 教学示意；非运行证据</text>
<text x="48" y="1108" fill="#536B7D" font-family="WenQuanYi Zen Hei" font-size="20" font-weight="normal" text-anchor="start">源码：cheshire_pkg.sv::get_llc_size；cheshire_soc.sv::gen_llc；axi_llc 依赖</text>
<rect id="low" x="55" y="235" width="515" height="130" rx="7" fill="#FFF3E7" stroke="#B76315" stroke-width="1.6"/>
<rect x="55" y="235" width="5" height="130" rx="0" fill="#B76315" stroke="#B76315" stroke-width="1.5"/>
<text x="72" y="267" fill="#B76315" font-family="WenQuanYi Zen Hei" font-size="26" font-weight="bold" text-anchor="start" data-box="low">低 SPM 别名 · 0x1000_0000</text>
<text x="72" y="303" fill="#536B7D" font-family="WenQuanYi Zen Hei" font-size="24" font-weight="normal" text-anchor="start" data-box="low">CPU 属性允许缓存</text>
<text x="72" y="333" fill="#536B7D" font-family="WenQuanYi Zen Hei" font-size="24" font-weight="normal" text-anchor="start" data-box="low">与高别名映射同一物理阵列</text>
<rect id="high" x="55" y="470" width="515" height="130" rx="7" fill="#EAF6F3" stroke="#087E83" stroke-width="1.6"/>
<rect x="55" y="470" width="5" height="130" rx="0" fill="#087E83" stroke="#087E83" stroke-width="1.5"/>
<text x="72" y="502" fill="#087E83" font-family="WenQuanYi Zen Hei" font-size="26" font-weight="bold" text-anchor="start" data-box="high">高 SPM 别名 · 0x1400_0000</text>
<text x="72" y="538" fill="#536B7D" font-family="WenQuanYi Zen Hei" font-size="24" font-weight="normal" text-anchor="start" data-box="high">教材共享实验仅通过此别名访问</text>
<text x="72" y="568" fill="#536B7D" font-family="WenQuanYi Zen Hei" font-size="24" font-weight="normal" text-anchor="start" data-box="high">仍须遵守缓冲区独占与可见性协议</text>
<text x="803" y="235" fill="#216BB1" font-family="WenQuanYi Zen Hei" font-size="25" font-weight="bold" text-anchor="start">同一片上阵列：SPM 直接定位，cache 通过标签定位</text>
<rect x="810" y="290" width="98" height="300" rx="5" fill="#EDF4FC" stroke="#B9CAD6" stroke-width="1.5"/>
<text x="859" y="333" fill="#19364B" font-family="WenQuanYi Zen Hei" font-size="21" font-weight="normal" text-anchor="middle">way 0</text>
<text x="859" y="387" fill="#536B7D" font-family="WenQuanYi Zen Hei" font-size="21" font-weight="normal" text-anchor="middle">16 KiB</text>
<line x1="818" y1="425" x2="900" y2="425" stroke="#B9CAD6" stroke-width="1" fill="none"/>
<line x1="818" y1="460" x2="900" y2="460" stroke="#B9CAD6" stroke-width="1" fill="none"/>
<line x1="818" y1="495" x2="900" y2="495" stroke="#B9CAD6" stroke-width="1" fill="none"/>
<line x1="818" y1="530" x2="900" y2="530" stroke="#B9CAD6" stroke-width="1" fill="none"/>
<rect x="919" y="290" width="98" height="300" rx="5" fill="#EDF4FC" stroke="#B9CAD6" stroke-width="1.5"/>
<text x="968" y="333" fill="#19364B" font-family="WenQuanYi Zen Hei" font-size="21" font-weight="normal" text-anchor="middle">way 1</text>
<text x="968" y="387" fill="#536B7D" font-family="WenQuanYi Zen Hei" font-size="21" font-weight="normal" text-anchor="middle">16 KiB</text>
<line x1="927" y1="425" x2="1009" y2="425" stroke="#B9CAD6" stroke-width="1" fill="none"/>
<line x1="927" y1="460" x2="1009" y2="460" stroke="#B9CAD6" stroke-width="1" fill="none"/>
<line x1="927" y1="495" x2="1009" y2="495" stroke="#B9CAD6" stroke-width="1" fill="none"/>
<line x1="927" y1="530" x2="1009" y2="530" stroke="#B9CAD6" stroke-width="1" fill="none"/>
<rect x="1028" y="290" width="98" height="300" rx="5" fill="#EDF4FC" stroke="#B9CAD6" stroke-width="1.5"/>
<text x="1077" y="333" fill="#19364B" font-family="WenQuanYi Zen Hei" font-size="21" font-weight="normal" text-anchor="middle">way 2</text>
<text x="1077" y="387" fill="#536B7D" font-family="WenQuanYi Zen Hei" font-size="21" font-weight="normal" text-anchor="middle">16 KiB</text>
<line x1="1036" y1="425" x2="1118" y2="425" stroke="#B9CAD6" stroke-width="1" fill="none"/>
<line x1="1036" y1="460" x2="1118" y2="460" stroke="#B9CAD6" stroke-width="1" fill="none"/>
<line x1="1036" y1="495" x2="1118" y2="495" stroke="#B9CAD6" stroke-width="1" fill="none"/>
<line x1="1036" y1="530" x2="1118" y2="530" stroke="#B9CAD6" stroke-width="1" fill="none"/>
<rect x="1137" y="290" width="98" height="300" rx="5" fill="#EDF4FC" stroke="#B9CAD6" stroke-width="1.5"/>
<text x="1186" y="333" fill="#19364B" font-family="WenQuanYi Zen Hei" font-size="21" font-weight="normal" text-anchor="middle">way 3</text>
<text x="1186" y="387" fill="#536B7D" font-family="WenQuanYi Zen Hei" font-size="21" font-weight="normal" text-anchor="middle">16 KiB</text>
<line x1="1145" y1="425" x2="1227" y2="425" stroke="#B9CAD6" stroke-width="1" fill="none"/>
<line x1="1145" y1="460" x2="1227" y2="460" stroke="#B9CAD6" stroke-width="1" fill="none"/>
<line x1="1145" y1="495" x2="1227" y2="495" stroke="#B9CAD6" stroke-width="1" fill="none"/>
<line x1="1145" y1="530" x2="1227" y2="530" stroke="#B9CAD6" stroke-width="1" fill="none"/>
<rect x="1246" y="290" width="98" height="300" rx="5" fill="#EAF6F3" stroke="#B9CAD6" stroke-width="1.5"/>
<text x="1295" y="333" fill="#19364B" font-family="WenQuanYi Zen Hei" font-size="21" font-weight="normal" text-anchor="middle">way 4</text>
<text x="1295" y="387" fill="#536B7D" font-family="WenQuanYi Zen Hei" font-size="21" font-weight="normal" text-anchor="middle">16 KiB</text>
<line x1="1254" y1="425" x2="1336" y2="425" stroke="#B9CAD6" stroke-width="1" fill="none"/>
<line x1="1254" y1="460" x2="1336" y2="460" stroke="#B9CAD6" stroke-width="1" fill="none"/>
<line x1="1254" y1="495" x2="1336" y2="495" stroke="#B9CAD6" stroke-width="1" fill="none"/>
<line x1="1254" y1="530" x2="1336" y2="530" stroke="#B9CAD6" stroke-width="1" fill="none"/>
<rect x="1355" y="290" width="98" height="300" rx="5" fill="#EAF6F3" stroke="#B9CAD6" stroke-width="1.5"/>
<text x="1404" y="333" fill="#19364B" font-family="WenQuanYi Zen Hei" font-size="21" font-weight="normal" text-anchor="middle">way 5</text>
<text x="1404" y="387" fill="#536B7D" font-family="WenQuanYi Zen Hei" font-size="21" font-weight="normal" text-anchor="middle">16 KiB</text>
<line x1="1363" y1="425" x2="1445" y2="425" stroke="#B9CAD6" stroke-width="1" fill="none"/>
<line x1="1363" y1="460" x2="1445" y2="460" stroke="#B9CAD6" stroke-width="1" fill="none"/>
<line x1="1363" y1="495" x2="1445" y2="495" stroke="#B9CAD6" stroke-width="1" fill="none"/>
<line x1="1363" y1="530" x2="1445" y2="530" stroke="#B9CAD6" stroke-width="1" fill="none"/>
<rect x="1464" y="290" width="98" height="300" rx="5" fill="#EAF6F3" stroke="#B9CAD6" stroke-width="1.5"/>
<text x="1513" y="333" fill="#19364B" font-family="WenQuanYi Zen Hei" font-size="21" font-weight="normal" text-anchor="middle">way 6</text>
<text x="1513" y="387" fill="#536B7D" font-family="WenQuanYi Zen Hei" font-size="21" font-weight="normal" text-anchor="middle">16 KiB</text>
<line x1="1472" y1="425" x2="1554" y2="425" stroke="#B9CAD6" stroke-width="1" fill="none"/>
<line x1="1472" y1="460" x2="1554" y2="460" stroke="#B9CAD6" stroke-width="1" fill="none"/>
<line x1="1472" y1="495" x2="1554" y2="495" stroke="#B9CAD6" stroke-width="1" fill="none"/>
<line x1="1472" y1="530" x2="1554" y2="530" stroke="#B9CAD6" stroke-width="1" fill="none"/>
<rect x="1573" y="290" width="98" height="300" rx="5" fill="#EAF6F3" stroke="#B9CAD6" stroke-width="1.5"/>
<text x="1622" y="333" fill="#19364B" font-family="WenQuanYi Zen Hei" font-size="21" font-weight="normal" text-anchor="middle">way 7</text>
<text x="1622" y="387" fill="#536B7D" font-family="WenQuanYi Zen Hei" font-size="21" font-weight="normal" text-anchor="middle">16 KiB</text>
<line x1="1581" y1="425" x2="1663" y2="425" stroke="#B9CAD6" stroke-width="1" fill="none"/>
<line x1="1581" y1="460" x2="1663" y2="460" stroke="#B9CAD6" stroke-width="1" fill="none"/>
<line x1="1581" y1="495" x2="1663" y2="495" stroke="#B9CAD6" stroke-width="1" fill="none"/>
<line x1="1581" y1="530" x2="1663" y2="530" stroke="#B9CAD6" stroke-width="1" fill="none"/>
<text x="820" y="650" fill="#536B7D" font-family="WenQuanYi Zen Hei" font-size="24" font-weight="normal" text-anchor="start">运行时分配可变；切换前处理脏行、栈、数据与在途事务</text>
<rect id="dram" x="55" y="820" width="690" height="150" rx="7" fill="#EDF4FC" stroke="#216BB1" stroke-width="1.6"/>
<rect x="55" y="820" width="5" height="150" rx="0" fill="#216BB1" stroke="#216BB1" stroke-width="1.5"/>
<text x="72" y="852" fill="#216BB1" font-family="WenQuanYi Zen Hei" font-size="26" font-weight="bold" text-anchor="start" data-box="dram">外存窗口 · 0x8000_0000 起</text>
<text x="72" y="888" fill="#536B7D" font-family="WenQuanYi Zen Hei" font-size="24" font-weight="normal" text-anchor="start" data-box="dram">cache 查标签：命中在片内完成</text>
<text x="72" y="918" fill="#536B7D" font-family="WenQuanYi Zen Hei" font-size="24" font-weight="normal" text-anchor="start" data-box="dram">缺失：必要时脏行写回，再由外存填充</text>
<rect id="out" x="980" y="820" width="735" height="150" rx="7" fill="#F3F6F8" stroke="#536B7D" stroke-width="1.6"/>
<rect x="980" y="820" width="5" height="150" rx="0" fill="#536B7D" stroke="#536B7D" stroke-width="1.5"/>
<text x="997" y="852" fill="#536B7D" font-family="WenQuanYi Zen Hei" font-size="26" font-weight="bold" text-anchor="start" data-box="out">LLC 下游 AXI → 平台内存 / DDR</text>
<text x="997" y="888" fill="#536B7D" font-family="WenQuanYi Zen Hei" font-size="24" font-weight="normal" text-anchor="start" data-box="out">SPM 地址命中不需要访问 DDR</text>
<text x="997" y="918" fill="#536B7D" font-family="WenQuanYi Zen Hei" font-size="24" font-weight="normal" text-anchor="start" data-box="out">ROM 主线在内部 LLC 存在时配置全 SPM</text>
</svg>
