<svg xmlns="http://www.w3.org/2000/svg" viewBox="0 0 1060 730" role="img" aria-labelledby="title desc"><title id="title">向量 load/store：控制与数据各走哪条路</title><desc id="desc">当前实现；addrgen 的翻译和异常应答与 AXI 数据完成分开。</desc><defs><marker id="arrow" markerWidth="8" markerHeight="8" refX="7" refY="4" orient="auto"><path d="M0,0 L8,4 L0,8" fill="#357988"/></marker></defs><rect width="1060" height="730" fill="#fcfefe"/><style>text{font-family:system-ui,"Noto Sans CJK SC",sans-serif;fill:#17384a}.title{font-size:25px;font-weight:700}.small{font-size:15px;fill:#536b78}.box{font-size:18px}.label{font-size:16px;fill:#216c77}</style>
<text x="32" y="42" class="title" text-anchor="start">向量 load/store：控制与数据各走哪条路</text>
<text x="32" y="74" class="small" text-anchor="start">当前实现；addrgen 的翻译和异常应答与 AXI 数据完成分开。</text>
<rect x="40.0" y="115" width="300.0" height="92" rx="9" fill="#edf5f7" stroke="#a7c2cb"/>
<text x="190.0" y="154.0" class="box" text-anchor="middle">CVA6 scalar register</text>
<text x="190.0" y="180.0" class="box" text-anchor="middle">rs1=base / rs2=stride</text>
<rect x="360.0" y="115" width="300.0" height="92" rx="9" fill="#edf5f7" stroke="#a7c2cb"/>
<text x="510.0" y="154.0" class="box" text-anchor="middle">Ara addrgen</text>
<text x="510.0" y="180.0" class="box" text-anchor="middle">base + 元素偏移 / vstart</text>
<rect x="680.0" y="115" width="300.0" height="92" rx="9" fill="#edf5f7" stroke="#a7c2cb"/>
<text x="830.0" y="154.0" class="box" text-anchor="middle">CVA6 MMU / LSU</text>
<text x="830.0" y="180.0" class="box" text-anchor="middle">仲裁翻译 / 权限 / 异常</text>
<path d="M340,158 L360,158" fill="none" stroke="#357988" stroke-width="2" marker-end="url(#arrow)"/>
<path d="M660,140 L680,140" fill="none" stroke="#357988" stroke-width="2" marker-end="url(#arrow)"/>
<text x="670" y="120" class="label" text-anchor="middle">请求</text>
<path d="M680,190 L660,190" fill="none" stroke="#357988" stroke-width="2" marker-end="url(#arrow)"/>
<text x="670" y="230" class="label" text-anchor="middle">应答</text>
<rect x="55" y="320" width="280" height="125" rx="9" fill="#edf5f7" stroke="#a7c2cb"/>
<text x="195.0" y="362.5" class="box" text-anchor="middle">VRF / lane</text>
<text x="195.0" y="388.5" class="box" text-anchor="middle">load 目的 / store 源</text>
<text x="195.0" y="414.5" class="box" text-anchor="middle">索引偏移 / mask</text>
<rect x="410" y="320" width="280" height="125" rx="9" fill="#edf5f7" stroke="#a7c2cb"/>
<text x="550.0" y="362.5" class="box" text-anchor="middle">VLSU</text>
<text x="550.0" y="388.5" class="box" text-anchor="middle">vldu / vstu</text>
<text x="550.0" y="414.5" class="box" text-anchor="middle">队列 / 重排 / 字节计数</text>
<path d="M550,207 L550,320" fill="none" stroke="#357988" stroke-width="2" marker-end="url(#arrow)"/>
<text x="615" y="280" class="label" text-anchor="middle">物理地址</text>
<path d="M333,355 L410,355" fill="none" stroke="#357988" stroke-width="2" marker-end="url(#arrow)"/>
<text x="370" y="343" class="label" text-anchor="middle">store</text>
<path d="M410,405 L333,405" fill="none" stroke="#357988" stroke-width="2" marker-end="url(#arrow)"/>
<text x="370" y="428" class="label" text-anchor="middle">load</text>
<rect x="770" y="310" width="245" height="155" rx="9" fill="#edf5f7" stroke="#a7c2cb"/>
<text x="892.5" y="354.5" class="box" text-anchor="middle">Ara AXI</text>
<text x="892.5" y="380.5" class="box" text-anchor="middle">AR → / R ←</text>
<text x="892.5" y="406.5" class="box" text-anchor="middle">AW,W → / B ←</text>
<text x="892.5" y="432.5" class="box" text-anchor="middle">独立于 CPU L1 数据口</text>
<path d="M690,350 L770,350" fill="none" stroke="#357988" stroke-width="2" marker-end="url(#arrow)"/>
<path d="M770,400 L690,400" fill="none" stroke="#357988" stroke-width="2" marker-end="url(#arrow)"/>
<rect x="75" y="560" width="905" height="75" rx="9" fill="#edf5f7" stroke="#a7c2cb"/>
<text x="527.5" y="603.5" class="box" text-anchor="middle">AXI → 失效过滤 / 位宽适配 → Crossbar → SPM 或 LLC → 外部存储</text>
<path d="M890,465 L890,560" fill="none" stroke="#357988" stroke-width="2" marker-end="url(#arrow)"/>
<text x="32" y="700" class="small" text-anchor="start">源码：addrgen / vldu / vstu、load_store_unit；本地 B 错误处理有 TODO，complete 不是成功证明。</text></svg>
